# xmcd
#
# Track frame offsets:
#	180
#	17813
#	38586
#	55664
#	71121
#	86033
#	105509
#	123784
#	134859
#	151293
#	167193
#	177372
#	191317
#
# Disc length: 2781 seconds
#
# Revision: 1
# Processed by: cddbd v1.5.1PL2 Copyright (c) Steve Scherf et al.
# Submitted via: audiograbber 1.82.02
#
DISCID=ab0adb0d
DTITLE=George Zalucki - Never Say It's Over
DYEAR=1900
DGENRE=
TTITLE0=I Don't Wanna Lose Your Love
TTITLE1=I Made It Through The Rain
TTITLE2=When We Loved
TTITLE3=It's All Over Now
TTITLE4=If I Had My Way
TTITLE5=The Weight Of The World
TTITLE6=Never Say It's Over
TTITLE7=I've Been Run Over By This Train Before
TTITLE8=I'm No Stranger To The Rain
TTITLE9=Keep Your Eyes On The Rainbow
TTITLE10=Heroes And Friends
TTITLE11=My Greatest Hero
TTITLE12=Secret Side Of You
EXTD=
EXTT0=
EXTT1=
EXTT2=
EXTT3=
EXTT4=
EXTT5=
EXTT6=
EXTT7=
EXTT8=
EXTT9=
EXTT10=
EXTT11=
EXTT12=
PLAYORDER=
